<?xml version="1.0" encoding="UTF-8" standalone="no"?>
<!-- Created with Inkscape (http://www.inkscape.org/) -->

<svg
   width="75mm"
   height="43mm"
   viewBox="0 0 75 43"
   version="1.1"
   id="svg1"
   inkscape:version="1.4 (e7c3feb100, 2024-10-09)"
   sodipodi:docname="logo.svg"
   xml:space="preserve"
   xmlns:inkscape="http://www.inkscape.org/namespaces/inkscape"
   xmlns:sodipodi="http://sodipodi.sourceforge.net/DTD/sodipodi-0.dtd"
   xmlns:xlink="http://www.w3.org/1999/xlink"
   xmlns="http://www.w3.org/2000/svg"
   xmlns:svg="http://www.w3.org/2000/svg"><sodipodi:namedview
     id="namedview1"
     pagecolor="#ffffff"
     bordercolor="#000000"
     borderopacity="0.25"
     inkscape:showpageshadow="2"
     inkscape:pageopacity="0.0"
     inkscape:pagecheckerboard="0"
     inkscape:deskcolor="#d1d1d1"
     inkscape:document-units="mm"
     inkscape:zoom="2.3181357"
     inkscape:cx="172.98383"
     inkscape:cy="159.61102"
     inkscape:window-width="1920"
     inkscape:window-height="1131"
     inkscape:window-x="0"
     inkscape:window-y="0"
     inkscape:window-maximized="1"
     inkscape:current-layer="layer1" /><defs
     id="defs1"><linearGradient
       id="linearGradient20"
       inkscape:collect="always"><stop
         style="stop-color:#ffffff;stop-opacity:1;"
         offset="0"
         id="stop19" /><stop
         style="stop-color:#34495e;stop-opacity:1;"
         offset="1"
         id="stop20" /></linearGradient><linearGradient
       id="linearGradient18"
       inkscape:collect="always"><stop
         style="stop-color:#2ecc71;stop-opacity:1;"
         offset="0"
         id="stop17" /><stop
         style="stop-color:#34495e;stop-opacity:1;"
         offset="1"
         id="stop18" /></linearGradient><linearGradient
       id="linearGradient16"
       inkscape:collect="always"><stop
         style="stop-color:#3498db;stop-opacity:1;"
         offset="0"
         id="stop15" /><stop
         style="stop-color:#34495e;stop-opacity:1;"
         offset="1"
         id="stop16" /></linearGradient><linearGradient
       id="linearGradient10"
       inkscape:collect="always"><stop
         style="stop-color:#9b59b6;stop-opacity:1;"
         offset="0"
         id="stop11" /><stop
         style="stop-color:#34495e;stop-opacity:1;"
         offset="1"
         id="stop12" /></linearGradient><style
       type="text/css"
       id="style1">*{stroke-linejoin: round; stroke-linecap: butt}</style><path
       id="LiberationSans-33"
       d="M 3278,1216 Q 3278,606 2890,271 2503,-63 1784,-63 1116,-63 717,239 319,541 244,1131 l 581,53 q 113,-781 959,-781 425,0 667,209 243,210 243,622 0,360 -277,561 -276,202 -798,202 h -319 v 487 h 306 q 463,0 717,202 255,202 255,558 0,353 -208,557 -207,205 -617,205 -372,0 -602,-191 -229,-190 -267,-537 l -565,44 q 62,541 448,844 386,303 992,303 663,0 1030,-308 367,-308 367,-858 0,-422 -236,-686 -236,-264 -686,-358 v -12 q 494,-53 769,-331 275,-278 275,-700 z"
       transform="scale(0.015625)" /><path
       id="LiberationSans-30"
       d="M 3309,2203 Q 3309,1100 2920,518 2531,-63 1772,-63 1013,-63 631,515 250,1094 250,2203 q 0,1135 370,1700 371,566 1171,566 778,0 1148,-572 370,-572 370,-1694 z m -571,0 q 0,953 -221,1381 -220,429 -726,429 -519,0 -746,-422 -226,-422 -226,-1388 0,-937 229,-1372 230,-434 730,-434 497,0 728,443 232,444 232,1363 z"
       transform="scale(0.015625)" /><path
       id="LiberationSans-32"
       d="m 322,0 v 397 q 159,366 389,645 230,280 483,506 253,227 501,421 249,194 449,387 200,194 323,406 124,213 124,482 0,362 -213,562 -212,200 -590,200 -360,0 -593,-195 -232,-195 -273,-548 l -575,53 q 62,528 448,840 386,313 993,313 665,0 1023,-314 358,-314 358,-892 0,-257 -118,-510 Q 2934,2500 2703,2247 2472,1994 1819,1463 1459,1169 1246,933 1034,697 941,478 H 3238 V 0 Z"
       transform="scale(0.015625)" /><path
       id="LiberationSans-34"
       d="M 2753,997 V 0 H 2222 V 997 H 147 v 437 l 2016,2969 h 590 V 1441 h 619 V 997 Z m -531,2772 q -6,-19 -88,-166 -81,-147 -121,-206 L 884,1734 716,1503 666,1441 h 1556 z"
       transform="scale(0.015625)" /><path
       id="LiberationSans-36"
       d="M 3278,1441 Q 3278,744 2900,340 2522,-63 1856,-63 1113,-63 719,490 325,1044 325,2100 q 0,1144 409,1756 410,613 1166,613 997,0 1256,-897 l -537,-97 q -166,538 -725,538 -481,0 -746,-449 -264,-448 -264,-1298 154,284 432,432 278,149 637,149 610,0 967,-382 358,-381 358,-1024 z m -572,-25 q 0,478 -234,737 -234,260 -653,260 -394,0 -636,-230 -242,-230 -242,-633 0,-509 251,-834 252,-325 646,-325 406,0 637,273 231,274 231,752 z"
       transform="scale(0.015625)" /><path
       id="LiberationSans-38"
       d="M 3281,1228 Q 3281,619 2893,278 2506,-63 1781,-63 1075,-63 676,271 278,606 278,1222 q 0,431 247,725 247,294 631,356 v 13 q -359,84 -567,365 -208,282 -208,660 0,503 376,815 377,313 1012,313 650,0 1026,-307 377,-306 377,-828 0,-378 -210,-659 -209,-281 -571,-353 v -13 q 422,-68 656,-357 234,-289 234,-724 z m -693,2075 q 0,747 -819,747 -397,0 -605,-188 -208,-187 -208,-559 0,-378 214,-577 214,-198 605,-198 397,0 605,183 208,183 208,592 z m 109,-2022 q 0,410 -244,617 -244,208 -684,208 -428,0 -669,-224 -241,-223 -241,-613 0,-910 929,-910 459,0 684,220 225,221 225,702 z"
       transform="scale(0.015625)" /><path
       id="LiberationSans-54"
       d="M 2250,3916 V 0 H 1656 V 3916 H 144 v 487 h 3619 v -487 z"
       transform="scale(0.015625)" /><path
       id="LiberationSans-69"
       d="m 428,4100 v 538 H 991 V 4100 Z M 428,0 V 3381 H 991 V 0 Z"
       transform="scale(0.015625)" /><path
       id="LiberationSans-6d"
       d="m 2400,0 v 2144 q 0,490 -135,677 -134,188 -484,188 -359,0 -569,-275 -209,-275 -209,-775 V 0 H 444 v 2659 q 0,591 -19,722 h 531 q 3,-15 6,-84 4,-69 8,-158 5,-89 11,-336 h 10 q 181,360 415,500 235,141 572,141 385,0 608,-153 223,-153 311,-488 h 9 q 175,341 423,491 249,150 602,150 513,0 745,-278 233,-278 233,-913 V 0 h -556 v 2144 q 0,490 -135,677 -134,188 -484,188 -368,0 -573,-273 -205,-273 -205,-777 V 0 Z"
       transform="scale(0.015625)" /><path
       id="LiberationSans-65"
       d="m 863,1572 q 0,-581 240,-897 241,-316 703,-316 366,0 586,147 221,147 299,372 L 3184,738 Q 2881,-63 1806,-63 1056,-63 664,384 272,831 272,1713 q 0,837 392,1284 392,447 1120,447 1491,0 1491,-1797 v -75 z m 1831,431 q -47,535 -272,780 -225,245 -647,245 -409,0 -648,-274 -239,-273 -258,-751 z"
       transform="scale(0.015625)" /><path
       id="LiberationSans-20"
       transform="scale(0.015625)"
       d="" /><path
       id="LiberationSans-28"
       d="m 397,1663 q 0,903 283,1621 283,719 870,1354 h 544 Q 1509,3988 1236,3256 963,2525 963,1656 963,791 1233,62 1503,-666 2094,-1325 H 1550 Q 959,-688 678,32 397,753 397,1650 Z"
       transform="scale(0.015625)" /><path
       id="LiberationSans-73"
       d="M 2969,934 Q 2969,456 2608,196 2247,-63 1597,-63 966,-63 623,145 281,353 178,794 l 497,97 q 72,-272 297,-399 225,-126 625,-126 428,0 626,131 199,131 199,394 0,200 -138,325 -137,125 -443,206 l -403,106 q -485,125 -690,245 -204,121 -320,293 -115,172 -115,422 0,462 329,704 330,242 961,242 560,0 889,-197 330,-196 417,-631 l -506,-62 q -47,225 -252,345 -204,120 -548,120 -381,0 -563,-116 -181,-115 -181,-349 0,-144 75,-238 75,-93 222,-159 147,-66 619,-181 447,-113 644,-208 197,-95 311,-211 114,-116 176,-268 63,-151 63,-345 z"
       transform="scale(0.015625)" /><path
       id="LiberationSans-29"
       d="M 1734,1650 Q 1734,747 1451,28 1169,-691 581,-1325 H 38 q 587,656 859,1382 272,727 272,1599 0,872 -274,1600 -273,728 -857,1382 h 543 q 591,-638 872,-1359 281,-720 281,-1616 z"
       transform="scale(0.015625)" /><path
       id="LiberationSans-2212"
       d="m 316,1900 v 456 h 3109 v -456 z"
       transform="scale(0.015625)" /><path
       id="LiberationSans-56"
       d="M 2444,0 H 1825 L 28,4403 h 628 l 1219,-3100 263,-778 262,778 1213,3100 h 628 z"
       transform="scale(0.015625)" /><path
       id="LiberationSans-6f"
       d="M 3291,1694 Q 3291,806 2900,371 2509,-63 1766,-63 1025,-63 647,389 269,841 269,1694 q 0,1750 1515,1750 775,0 1141,-427 366,-426 366,-1323 z m -591,0 q 0,700 -208,1017 -208,317 -698,317 -494,0 -715,-324 -220,-323 -220,-1010 0,-669 217,-1005 218,-336 683,-336 507,0 724,325 217,325 217,1016 z"
       transform="scale(0.015625)" /><path
       id="LiberationSans-6c"
       d="M 431,0 V 4638 H 994 V 0 Z"
       transform="scale(0.015625)" /><path
       id="LiberationSans-74"
       d="M 1731,25 Q 1453,-50 1163,-50 488,-50 488,716 V 2972 H 97 v 409 h 412 l 166,757 h 375 v -757 h 625 V 2972 H 1050 V 838 q 0,-244 79,-343 80,-98 277,-98 113,0 325,44 z"
       transform="scale(0.015625)" /><path
       id="LiberationSans-61"
       d="m 1294,-63 q -510,0 -766,269 -256,269 -256,738 0,525 345,806 346,281 1114,300 l 760,13 v 184 q 0,412 -175,590 -175,179 -550,179 -378,0 -550,-129 -172,-128 -207,-409 l -587,53 q 144,913 1356,913 638,0 959,-293 322,-292 322,-845 V 850 q 0,-250 66,-377 66,-126 250,-126 81,0 184,22 V 19 q -212,-50 -434,-50 -312,0 -455,164 -142,164 -161,514 h -18 Q 2275,259 1989,98 1703,-63 1294,-63 Z m 128,422 q 309,0 550,141 241,141 380,386 139,245 139,505 v 278 l -616,-13 q -397,-6 -602,-81 Q 1069,1500 959,1344 850,1188 850,934 850,659 998,509 1147,359 1422,359 Z"
       transform="scale(0.015625)" /><path
       id="LiberationSans-67"
       d="m 1713,-1328 q -554,0 -882,217 -328,217 -422,617 l 566,81 q 56,-234 248,-360 193,-127 505,-127 841,0 841,984 v 544 h -6 Q 2403,303 2125,139 1847,-25 1475,-25 853,-25 561,387 269,800 269,1684 q 0,897 314,1323 314,427 955,427 359,0 623,-164 264,-164 408,-467 h 6 q 0,94 12,325 13,231 26,253 h 534 q -19,-168 -19,-700 V 97 q 0,-1425 -1415,-1425 z m 856,3019 q 0,412 -113,710 -112,299 -317,457 -205,158 -464,158 -431,0 -628,-313 -197,-312 -197,-1012 0,-694 184,-997 185,-303 632,-303 265,0 471,156 207,156 319,448 113,293 113,696 z"
       transform="scale(0.015625)" /><clipPath
       id="pbeede9d78b"><rect
         x="144"
         y="69.120003"
         width="892.79999"
         height="443.51999"
         id="rect73" /></clipPath><linearGradient
       id="egQtShxjdWc3-fill"
       x1="200"
       y1="84.5"
       x2="200"
       y2="306.5"
       spreadMethod="pad"
       gradientUnits="userSpaceOnUse"><stop
         id="egQtShxjdWc3-fill-0"
         offset="2%"
         stop-color="#efefef" /><stop
         id="egQtShxjdWc3-fill-1"
         offset="9%"
         stop-color="#e4e4e6" /><stop
         id="egQtShxjdWc3-fill-2"
         offset="90%"
         stop-color="#f7f7f7" /><stop
         id="egQtShxjdWc3-fill-3"
         offset="99%"
         stop-color="#e4e4e6" /></linearGradient><linearGradient
       id="egQtShxjdWc5-fill"
       x1="97.260002"
       y1="-68.139999"
       x2="172.19"
       y2="172.28"
       spreadMethod="pad"
       gradientUnits="userSpaceOnUse"><stop
         id="egQtShxjdWc5-fill-0"
         offset="0%"
         stop-color="#61646b" /><stop
         id="egQtShxjdWc5-fill-1"
         offset="100%"
         stop-color="#484b4e" /></linearGradient><linearGradient
       id="egQtShxjdWc6-fill"
       x1="0"
       y1="-6.6199999"
       x2="0"
       y2="1.8"
       spreadMethod="pad"
       gradientUnits="userSpaceOnUse"><stop
         id="egQtShxjdWc6-fill-0"
         offset="29%"
         stop-color="#e5dcdc" /><stop
         id="egQtShxjdWc6-fill-1"
         offset="67%"
         stop-color="#cacfde" /></linearGradient><linearGradient
       id="egQtShxjdWc7-fill"
       x1="200.11"
       y1="316.25"
       x2="200.11"
       y2="303.16"
       spreadMethod="pad"
       gradientUnits="userSpaceOnUse"><stop
         id="egQtShxjdWc7-fill-0"
         offset="0%"
         stop-color="#e7e9f0" /><stop
         id="egQtShxjdWc7-fill-1"
         offset="62%"
         stop-color="#b8bbc4" /></linearGradient><linearGradient
       id="egQtShxjdWc8-fill"
       x1="193.5"
       y1="7.9200001"
       x2="193.5"
       y2="1.17"
       spreadMethod="pad"
       gradientUnits="userSpaceOnUse"><stop
         id="egQtShxjdWc8-fill-0"
         offset="0%"
         stop-color="#efefef" /><stop
         id="egQtShxjdWc8-fill-1"
         offset="14%"
         stop-color="#b8bbc4" /><stop
         id="egQtShxjdWc8-fill-2"
         offset="35%"
         stop-color="#f7f7f7" /></linearGradient><linearGradient
       id="egQtShxjdWc9-fill"
       x1="200"
       y1="311.23999"
       x2="200"
       y2="295.88"
       spreadMethod="pad"
       gradientUnits="userSpaceOnUse"><stop
         id="egQtShxjdWc9-fill-0"
         offset="36%"
         stop-color="#e2e2e2" /><stop
         id="egQtShxjdWc9-fill-1"
         offset="74%"
         stop-color="#d0d3db" /><stop
         id="egQtShxjdWc9-fill-2"
         offset="94%"
         stop-color="#e2e2e2" /></linearGradient><linearGradient
       inkscape:collect="always"
       xlink:href="#linearGradient10"
       id="linearGradient12"
       x1="502.44067"
       y1="446.95483"
       x2="259.23178"
       y2="135.66165"
       gradientUnits="userSpaceOnUse" /><clipPath
       id="pbeede9d78b-6"><rect
         x="144"
         y="69.120003"
         width="892.79999"
         height="443.51999"
         id="rect73-1" /></clipPath><linearGradient
       inkscape:collect="always"
       xlink:href="#linearGradient16"
       id="linearGradient15"
       gradientUnits="userSpaceOnUse"
       x1="502.44067"
       y1="446.95483"
       x2="259.23178"
       y2="135.66165" /><linearGradient
       inkscape:collect="always"
       xlink:href="#linearGradient18"
       id="linearGradient15-9"
       gradientUnits="userSpaceOnUse"
       x1="502.44067"
       y1="446.95483"
       x2="259.23178"
       y2="135.66165" /><clipPath
       id="pbeede9d78b-6-8"><rect
         x="144"
         y="69.120003"
         width="892.79999"
         height="443.51999"
         id="rect73-1-4" /></clipPath><linearGradient
       inkscape:collect="always"
       xlink:href="#linearGradient20"
       id="linearGradient15-9-1"
       gradientUnits="userSpaceOnUse"
       x1="502.44067"
       y1="446.95483"
       x2="259.23178"
       y2="135.66165" /><clipPath
       id="pbeede9d78b-6-8-3"><rect
         x="144"
         y="69.120003"
         width="892.79999"
         height="443.51999"
         id="rect73-1-4-2" /></clipPath></defs><g
     inkscape:label="Layer 1"
     inkscape:groupmode="layer"
     id="layer1"><g
       style="shape-rendering:geometricPrecision;text-rendering:geometricPrecision"
       id="g2"
       transform="matrix(0.26458333,0,0,0.26458333,-2.599767,-2.0438823)"><g
         transform="matrix(0.724414,0,0,0.724414,5.1172,-56.885575)"
         id="g4"><path
           d="m 53.92,89.69 h 292.16 c 5.66092,0 10.25,4.589081 10.25,10.25 V 304.35 H 43.67 V 99.94 c 0,-5.660919 4.589081,-10.25 10.25,-10.25 z"
           fill="url(#egQtShxjdWc3-fill)"
           stroke="#e6e6e6"
           stroke-miterlimit="10"
           id="path1"
           style="fill:url(#egQtShxjdWc3-fill)" /><path
           d="M 102.91,41.69 H 306.33 V 352.35 H 102.91 c -5.108634,0 -9.25,-4.14137 -9.25,-9.25 V 50.94 c 0,-5.108634 4.141366,-9.25 9.25,-9.25 z"
           transform="rotate(90,200,197.02)"
           fill="none"
           stroke="#f6f6f7"
           stroke-miterlimit="10"
           id="path2" /><rect
           width="294.67001"
           height="185"
           rx="1.67"
           ry="1.67"
           transform="translate(52.67,104.02)"
           fill="url(#egQtShxjdWc5-fill)"
           id="rect2"
           x="0"
           y="0"
           style="fill:url(#egQtShxjdWc5-fill)" /><circle
           r="1.71"
           transform="translate(200,97.71)"
           fill="url(#egQtShxjdWc6-fill)"
           id="circle2"
           cx="0"
           cy="0"
           style="fill:url(#egQtShxjdWc6-fill)" /><path
           d="M 392.13,306 H 8.1 v 1 c 8.0609,2.20899 16.381908,3.32563 24.74,3.32 h 334.32 c 8.44834,0.006 16.85846,-1.13393 25,-3.39 z"
           fill="url(#egQtShxjdWc7-fill)"
           id="path3"
           style="fill:url(#egQtShxjdWc7-fill)" /><rect
           width="387"
           height="7"
           rx="2"
           ry="2"
           transform="translate(6.5,300.02)"
           fill="url(#egQtShxjdWc8-fill)"
           id="rect3"
           x="0"
           y="0"
           style="fill:url(#egQtShxjdWc8-fill)" /><path
           d="m 167.92,300 c 0.71854,2.63671 3.15899,4.4308 5.89,4.33 h 52.37 c 2.73101,0.1008 5.17146,-1.69329 5.89,-4.33 z"
           fill="url(#egQtShxjdWc9-fill)"
           id="path4"
           style="fill:url(#egQtShxjdWc9-fill)" /></g></g><path
       id="path37"
       clip-path="url(#pbeede9d78b)"
       style="display:inline;fill:none;fill-opacity:1;stroke:url(#linearGradient12);stroke-width:2.62581;stroke-linecap:butt;stroke-linejoin:bevel;stroke-dasharray:none;stroke-opacity:1"
       d="m 184.58,431.28 0.87,-3.04 0.7,-1.69 0.6,-0.87 0.49,-0.35 0.43,-0.06 0.43,0.16 0.54,0.47 0.65,0.9 0.87,1.65 1.14,2.69 1.89,5.14 3.95,10.83 1.62,3.77 1.35,2.61 1.14,1.75 1.03,1.2 0.92,0.76 0.87,0.43 0.81,0.17 0.81,-0.06 0.87,-0.29 0.92,-0.55 1.03,-0.89 1.19,-1.35 1.46,-2.03 1.52,-2.46 2.27,-4.13 3.41,-6.76 5.25,-10.93 2.44,-5.49 1.57,-4.01 1.08,-3.37 0.76,-3.04 0.6,-3.27 0.49,-4.06 0.32,-4.69 0.22,-6.35 0.11,-6.92 0.05,-7.43 0.05,-25.16 0.11,-264.77 0.05,1.71 0.11,9.67 0.22,51.81 0.6,174.34 0.16,152.87 0.16,8.44 0.27,-3.84 2.49,-38.21 1.62,-24.31 0.81,-15.26 0.32,-9.4 0.16,-10 0.05,-8.35 0.05,-36.54 0.05,-251.34 0.11,3.29 0.16,20.26 0.38,98.95 0.43,115.76 0.16,154.1 0.16,7.61 0.22,-2.49 2.92,-36.14 1.62,-18.66 1.19,-16.64 0.81,-13.95 0.27,-7.83 0.16,-11.76 0.05,-13.76 0.11,-279.01 0.05,1.63 0.16,16.94 0.27,69.02 0.54,151.7 0.16,153.99 0.16,8.06 0.27,-3.01 2.11,-23.56 0.92,-7.06 1.14,-6.94 2.65,-14.4 1.24,-5.75 0.87,-3 0.65,-1.57 0.6,-0.9 0.49,-0.37 0.43,-0.08 0.43,0.14 0.54,0.45 0.65,0.87 0.81,1.49 1.14,2.63 1.79,4.79 4.17,11.33 1.62,3.72 1.35,2.56 1.19,1.78 0.97,1.09 0.97,0.75 0.87,0.39 0.76,0.11 0.92,-0.11 0.87,-0.35 0.92,-0.62 1.08,-1 1.24,-1.48 1.46,-2.12 1.84,-3.09 2.49,-4.68 4,-8.09 4.87,-10.29 2.16,-5.08 1.3,-3.57 0.92,-3.13 0.7,-3.17 0.54,-3.47 0.43,-4.41 0.27,-5.1 0.16,-6.25 0.11,-10.19 0.05,-17.4 0.11,-274.77 0.05,1.47 0.11,8.67 0.22,49.85 0.6,169.14 0.16,159.36 0.16,10.63 0.16,-2.03 3.57,-53.95 1.08,-17.84 0.6,-13.14 0.22,-8.93 0.11,-11.43 0.05,-24.34 0.11,-265.23 0.05,2.34 0.16,19.14 0.32,83.47 0.49,124.41 0.16,160.75 0.16,9.53 0.22,-2.44 2.06,-26.72 3.19,-37.86 1.08,-16.94 0.38,-8.66 0.16,-6.9 0.11,-11.53 0.05,-26.28 0.11,-262.51 0.05,2.28 0.16,19.51 0.32,87.23 0.49,165.96 0.16,120.88 0.11,5.03 0.05,-0.12 0.38,-4.47 1.52,-17.59 0.97,-8.49 0.97,-6.52 1.68,-9.41 2.27,-11.78 0.97,-3.92 0.76,-2.23 0.65,-1.26 0.49,-0.55 0.49,-0.25 0.43,0.03 0.49,0.3 0.54,0.59 0.7,1.12 0.92,1.91 1.35,3.37 2.71,7.51 2.54,6.8 1.62,3.74 1.35,2.57 1.14,1.71 1.03,1.17 0.92,0.72 0.87,0.4 0.81,0.14 0.81,-0.08 0.87,-0.32 0.92,-0.58 1.03,-0.91 1.19,-1.36 1.41,-1.96 1.68,-2.72 2.22,-4.06 3.14,-6.24 5.09,-10.62 2.81,-6.29 1.52,-3.87 1.03,-3.17 0.87,-3.39 0.6,-3.24 0.43,-3.61 0.32,-4.43 0.22,-5.48 0.16,-10.71 0.05,-10.22 0.11,-285.28 0.16,7.61 0.16,30.22 0.7,229.58 0.16,126.69 0.11,5.23 0.05,-0.26 0.38,-5.72 2.16,-33.36 1.89,-28.31 0.76,-14.48 0.32,-9.51 0.16,-11.29 0.05,-11.1 0.11,-283.5 0.11,4.63 0.16,22.23 0.7,172.19 0.11,65.18 0.16,130.68 0.11,5.33 0.05,-0.08 0.7,-9.31 1.46,-18.7 3.52,-42.13 0.97,-15.82 0.32,-8.31 0.16,-8.83 0.05,-6.75 0.05,-20.77 0.11,-269.35 0.05,2.06 0.16,18.77 0.32,86.59 0.49,152.12 0.16,135.54 0.11,5.88 0.05,-0.03 0.27,-3.07 1.3,-15.62 0.92,-8.82 0.92,-6.88 1.24,-7.39 2.81,-15.08 1.08,-4.7 0.81,-2.6 0.65,-1.42 0.6,-0.78 0.49,-0.29 0.43,0.01 0.43,0.22 0.54,0.54 0.7,1.07 0.92,1.86 1.24,3.05 2.38,6.59 2.81,7.62 1.68,3.94 1.35,2.67 1.19,1.88 1.03,1.25 0.97,0.84 0.87,0.47 0.81,0.19 0.81,-0.02 0.81,-0.24 0.92,-0.52 1.03,-0.85 1.14,-1.24 1.35,-1.82 1.57,-2.48 2.11,-3.77 3.03,-5.94 5.09,-10.53 3.25,-7.16 1.62,-4.07 1.14,-3.45 0.81,-3.2 0.65,-3.55 0.43,-3.57 0.32,-4.44 0.22,-5.48 0.16,-10.39 0.05,-9.95 0.05,-66.11 0.05,-219.84 0.11,3.11 0.16,21.38 0.7,192.49 0.32,182.39 0.05,-0.21 0.43,-6.58 2.27,-34.83 1.73,-26.01 0.76,-14.48 0.32,-9.77 0.16,-11.7 0.05,-12.64 0.11,-281.19 0.05,1.65 0.16,16.46 0.27,65.39 0.6,189.17 0.16,122.68 0.11,4.79 0.05,-0.18 0.43,-5.59 1.89,-24.3 3.03,-35.69 1.14,-17.52 0.43,-9.83 0.16,-7.44 0.11,-14.59 0.11,-285.11 0.16,8.61 0.22,42.59 0.65,174.06 0.16,164.49 0.16,11.53 0.11,-0.82 2.27,-25.61 0.92,-7.14 1.14,-7.03 2.81,-15.51 1.19,-5.54 0.81,-2.84 0.65,-1.58 0.6,-0.9 0.49,-0.36 0.43,-0.06 0.43,0.16 0.54,0.48 0.65,0.9 0.87,1.64 1.19,2.81 1.84,5.02 4,11 1.73,4.01 1.35,2.58 1.14,1.74 1.03,1.19 0.92,0.75 0.81,0.4 0.92,0.19 0.81,-0.07 0.87,-0.32 0.92,-0.57 1.03,-0.91 1.19,-1.37 1.46,-2.05 1.73,-2.85 2.22,-4.09 3.35,-6.69 5.09,-10.66 2.76,-6.25 1.46,-3.86 0.97,-3.15 0.7,-2.95 0.6,-3.38 0.43,-3.78 0.32,-4.85 0.22,-6.69 0.11,-7.72 0.05,-9.35 0.05,-50.2 0.05,-236.93 0.11,2.93 0.16,20.78 0.65,176.2 0.11,53.96 0.16,139.31 0.11,6.2 0.05,-0.11 0.43,-6.6 2.98,-44.77 1.19,-18.8 0.7,-14.28 0.27,-9.41 0.11,-8.43 0.05,-10.42 0.11,-284.54 0.11,4.31 0.16,21.92 0.7,171.99 0.11,58.41 0.16,137.79 0.11,5.72 0.05,-0.08 0.38,-4.8 1.95,-25.01 3.03,-35.55 1.14,-17.42 0.43,-9.53 0.22,-10.56 0.11,-26.6 0.11,-270.48 0.05,2.05 0.16,18.53 0.32,86.41 0.49,149.52 0.16,138.42 0.11,6.08 0.05,-0.04 0.22,-2.35 2,-22.71 0.92,-7.39 1.14,-7.14 2.6,-14.35 1.3,-6.3 0.87,-3.25 0.7,-1.89 0.6,-1.03 0.54,-0.5 0.43,-0.11 0.49,0.14 0.49,0.39 0.65,0.86 0.81,1.49 1.14,2.63 1.79,4.8 4.22,11.54 1.68,3.88 1.35,2.59 1.14,1.74 1.08,1.25 0.92,0.74 0.87,0.41 0.81,0.16 0.81,-0.07 0.92,-0.34 0.92,-0.58 1.03,-0.92 1.19,-1.38 1.41,-1.97 1.79,-2.93 2.16,-3.99 0.16,-0.32"
       transform="matrix(0.11629445,0,0,0.06146412,-6.6749236,2.6268587)"
       inkscape:label="3" /><path
       id="path37-9"
       clip-path="url(#pbeede9d78b-6)"
       style="display:inline;fill:none;fill-opacity:1;stroke:url(#linearGradient15);stroke-width:2.62581;stroke-linecap:butt;stroke-linejoin:bevel;stroke-dasharray:none;stroke-opacity:1"
       d="m 184.58,431.28 0.87,-3.04 0.7,-1.69 0.6,-0.87 0.49,-0.35 0.43,-0.06 0.43,0.16 0.54,0.47 0.65,0.9 0.87,1.65 1.14,2.69 1.89,5.14 3.95,10.83 1.62,3.77 1.35,2.61 1.14,1.75 1.03,1.2 0.92,0.76 0.87,0.43 0.81,0.17 0.81,-0.06 0.87,-0.29 0.92,-0.55 1.03,-0.89 1.19,-1.35 1.46,-2.03 1.52,-2.46 2.27,-4.13 3.41,-6.76 5.25,-10.93 2.44,-5.49 1.57,-4.01 1.08,-3.37 0.76,-3.04 0.6,-3.27 0.49,-4.06 0.32,-4.69 0.22,-6.35 0.11,-6.92 0.05,-7.43 0.05,-25.16 0.11,-264.77 0.05,1.71 0.11,9.67 0.22,51.81 0.6,174.34 0.16,152.87 0.16,8.44 0.27,-3.84 2.49,-38.21 1.62,-24.31 0.81,-15.26 0.32,-9.4 0.16,-10 0.05,-8.35 0.05,-36.54 0.05,-251.34 0.11,3.29 0.16,20.26 0.38,98.95 0.43,115.76 0.16,154.1 0.16,7.61 0.22,-2.49 2.92,-36.14 1.62,-18.66 1.19,-16.64 0.81,-13.95 0.27,-7.83 0.16,-11.76 0.05,-13.76 0.11,-279.01 0.05,1.63 0.16,16.94 0.27,69.02 0.54,151.7 0.16,153.99 0.16,8.06 0.27,-3.01 2.11,-23.56 0.92,-7.06 1.14,-6.94 2.65,-14.4 1.24,-5.75 0.87,-3 0.65,-1.57 0.6,-0.9 0.49,-0.37 0.43,-0.08 0.43,0.14 0.54,0.45 0.65,0.87 0.81,1.49 1.14,2.63 1.79,4.79 4.17,11.33 1.62,3.72 1.35,2.56 1.19,1.78 0.97,1.09 0.97,0.75 0.87,0.39 0.76,0.11 0.92,-0.11 0.87,-0.35 0.92,-0.62 1.08,-1 1.24,-1.48 1.46,-2.12 1.84,-3.09 2.49,-4.68 4,-8.09 4.87,-10.29 2.16,-5.08 1.3,-3.57 0.92,-3.13 0.7,-3.17 0.54,-3.47 0.43,-4.41 0.27,-5.1 0.16,-6.25 0.11,-10.19 0.05,-17.4 0.11,-274.77 0.05,1.47 0.11,8.67 0.22,49.85 0.6,169.14 0.16,159.36 0.16,10.63 0.16,-2.03 3.57,-53.95 1.08,-17.84 0.6,-13.14 0.22,-8.93 0.11,-11.43 0.05,-24.34 0.11,-265.23 0.05,2.34 0.16,19.14 0.32,83.47 0.49,124.41 0.16,160.75 0.16,9.53 0.22,-2.44 2.06,-26.72 3.19,-37.86 1.08,-16.94 0.38,-8.66 0.16,-6.9 0.11,-11.53 0.05,-26.28 0.11,-262.51 0.05,2.28 0.16,19.51 0.32,87.23 0.49,165.96 0.16,120.88 0.11,5.03 0.05,-0.12 0.38,-4.47 1.52,-17.59 0.97,-8.49 0.97,-6.52 1.68,-9.41 2.27,-11.78 0.97,-3.92 0.76,-2.23 0.65,-1.26 0.49,-0.55 0.49,-0.25 0.43,0.03 0.49,0.3 0.54,0.59 0.7,1.12 0.92,1.91 1.35,3.37 2.71,7.51 2.54,6.8 1.62,3.74 1.35,2.57 1.14,1.71 1.03,1.17 0.92,0.72 0.87,0.4 0.81,0.14 0.81,-0.08 0.87,-0.32 0.92,-0.58 1.03,-0.91 1.19,-1.36 1.41,-1.96 1.68,-2.72 2.22,-4.06 3.14,-6.24 5.09,-10.62 2.81,-6.29 1.52,-3.87 1.03,-3.17 0.87,-3.39 0.6,-3.24 0.43,-3.61 0.32,-4.43 0.22,-5.48 0.16,-10.71 0.05,-10.22 0.11,-285.28 0.16,7.61 0.16,30.22 0.7,229.58 0.16,126.69 0.11,5.23 0.05,-0.26 0.38,-5.72 2.16,-33.36 1.89,-28.31 0.76,-14.48 0.32,-9.51 0.16,-11.29 0.05,-11.1 0.11,-283.5 0.11,4.63 0.16,22.23 0.7,172.19 0.11,65.18 0.16,130.68 0.11,5.33 0.05,-0.08 0.7,-9.31 1.46,-18.7 3.52,-42.13 0.97,-15.82 0.32,-8.31 0.16,-8.83 0.05,-6.75 0.05,-20.77 0.11,-269.35 0.05,2.06 0.16,18.77 0.32,86.59 0.49,152.12 0.16,135.54 0.11,5.88 0.05,-0.03 0.27,-3.07 1.3,-15.62 0.92,-8.82 0.92,-6.88 1.24,-7.39 2.81,-15.08 1.08,-4.7 0.81,-2.6 0.65,-1.42 0.6,-0.78 0.49,-0.29 0.43,0.01 0.43,0.22 0.54,0.54 0.7,1.07 0.92,1.86 1.24,3.05 2.38,6.59 2.81,7.62 1.68,3.94 1.35,2.67 1.19,1.88 1.03,1.25 0.97,0.84 0.87,0.47 0.81,0.19 0.81,-0.02 0.81,-0.24 0.92,-0.52 1.03,-0.85 1.14,-1.24 1.35,-1.82 1.57,-2.48 2.11,-3.77 3.03,-5.94 5.09,-10.53 3.25,-7.16 1.62,-4.07 1.14,-3.45 0.81,-3.2 0.65,-3.55 0.43,-3.57 0.32,-4.44 0.22,-5.48 0.16,-10.39 0.05,-9.95 0.05,-66.11 0.05,-219.84 0.11,3.11 0.16,21.38 0.7,192.49 0.32,182.39 0.05,-0.21 0.43,-6.58 2.27,-34.83 1.73,-26.01 0.76,-14.48 0.32,-9.77 0.16,-11.7 0.05,-12.64 0.11,-281.19 0.05,1.65 0.16,16.46 0.27,65.39 0.6,189.17 0.16,122.68 0.11,4.79 0.05,-0.18 0.43,-5.59 1.89,-24.3 3.03,-35.69 1.14,-17.52 0.43,-9.83 0.16,-7.44 0.11,-14.59 0.11,-285.11 0.16,8.61 0.22,42.59 0.65,174.06 0.16,164.49 0.16,11.53 0.11,-0.82 2.27,-25.61 0.92,-7.14 1.14,-7.03 2.81,-15.51 1.19,-5.54 0.81,-2.84 0.65,-1.58 0.6,-0.9 0.49,-0.36 0.43,-0.06 0.43,0.16 0.54,0.48 0.65,0.9 0.87,1.64 1.19,2.81 1.84,5.02 4,11 1.73,4.01 1.35,2.58 1.14,1.74 1.03,1.19 0.92,0.75 0.81,0.4 0.92,0.19 0.81,-0.07 0.87,-0.32 0.92,-0.57 1.03,-0.91 1.19,-1.37 1.46,-2.05 1.73,-2.85 2.22,-4.09 3.35,-6.69 5.09,-10.66 2.76,-6.25 1.46,-3.86 0.97,-3.15 0.7,-2.95 0.6,-3.38 0.43,-3.78 0.32,-4.85 0.22,-6.69 0.11,-7.72 0.05,-9.35 0.05,-50.2 0.05,-236.93 0.11,2.93 0.16,20.78 0.65,176.2 0.11,53.96 0.16,139.31 0.11,6.2 0.05,-0.11 0.43,-6.6 2.98,-44.77 1.19,-18.8 0.7,-14.28 0.27,-9.41 0.11,-8.43 0.05,-10.42 0.11,-284.54 0.11,4.31 0.16,21.92 0.7,171.99 0.11,58.41 0.16,137.79 0.11,5.72 0.05,-0.08 0.38,-4.8 1.95,-25.01 3.03,-35.55 1.14,-17.42 0.43,-9.53 0.22,-10.56 0.11,-26.6 0.11,-270.48 0.05,2.05 0.16,18.53 0.32,86.41 0.49,149.52 0.16,138.42 0.11,6.08 0.05,-0.04 0.22,-2.35 2,-22.71 0.92,-7.39 1.14,-7.14 2.6,-14.35 1.3,-6.3 0.87,-3.25 0.7,-1.89 0.6,-1.03 0.54,-0.5 0.43,-0.11 0.49,0.14 0.49,0.39 0.65,0.86 0.81,1.49 1.14,2.63 1.79,4.8 4.22,11.54 1.68,3.88 1.35,2.59 1.14,1.74 1.08,1.25 0.92,0.74 0.87,0.41 0.81,0.16 0.81,-0.07 0.92,-0.34 0.92,-0.58 1.03,-0.92 1.19,-1.38 1.41,-1.97 1.79,-2.93 2.16,-3.99 0.16,-0.32"
       transform="matrix(0.11629445,0,0,0.06146412,-6.6749238,2.6268587)"
       inkscape:label="2" /><path
       id="path37-9-0"
       clip-path="url(#pbeede9d78b-6-8)"
       style="display:none;fill:none;fill-opacity:1;stroke:url(#linearGradient15-9);stroke-width:2.62581;stroke-linecap:butt;stroke-linejoin:bevel;stroke-dasharray:none;stroke-opacity:1"
       d="m 184.58,431.28 0.87,-3.04 0.7,-1.69 0.6,-0.87 0.49,-0.35 0.43,-0.06 0.43,0.16 0.54,0.47 0.65,0.9 0.87,1.65 1.14,2.69 1.89,5.14 3.95,10.83 1.62,3.77 1.35,2.61 1.14,1.75 1.03,1.2 0.92,0.76 0.87,0.43 0.81,0.17 0.81,-0.06 0.87,-0.29 0.92,-0.55 1.03,-0.89 1.19,-1.35 1.46,-2.03 1.52,-2.46 2.27,-4.13 3.41,-6.76 5.25,-10.93 2.44,-5.49 1.57,-4.01 1.08,-3.37 0.76,-3.04 0.6,-3.27 0.49,-4.06 0.32,-4.69 0.22,-6.35 0.11,-6.92 0.05,-7.43 0.05,-25.16 0.11,-264.77 0.05,1.71 0.11,9.67 0.22,51.81 0.6,174.34 0.16,152.87 0.16,8.44 0.27,-3.84 2.49,-38.21 1.62,-24.31 0.81,-15.26 0.32,-9.4 0.16,-10 0.05,-8.35 0.05,-36.54 0.05,-251.34 0.11,3.29 0.16,20.26 0.38,98.95 0.43,115.76 0.16,154.1 0.16,7.61 0.22,-2.49 2.92,-36.14 1.62,-18.66 1.19,-16.64 0.81,-13.95 0.27,-7.83 0.16,-11.76 0.05,-13.76 0.11,-279.01 0.05,1.63 0.16,16.94 0.27,69.02 0.54,151.7 0.16,153.99 0.16,8.06 0.27,-3.01 2.11,-23.56 0.92,-7.06 1.14,-6.94 2.65,-14.4 1.24,-5.75 0.87,-3 0.65,-1.57 0.6,-0.9 0.49,-0.37 0.43,-0.08 0.43,0.14 0.54,0.45 0.65,0.87 0.81,1.49 1.14,2.63 1.79,4.79 4.17,11.33 1.62,3.72 1.35,2.56 1.19,1.78 0.97,1.09 0.97,0.75 0.87,0.39 0.76,0.11 0.92,-0.11 0.87,-0.35 0.92,-0.62 1.08,-1 1.24,-1.48 1.46,-2.12 1.84,-3.09 2.49,-4.68 4,-8.09 4.87,-10.29 2.16,-5.08 1.3,-3.57 0.92,-3.13 0.7,-3.17 0.54,-3.47 0.43,-4.41 0.27,-5.1 0.16,-6.25 0.11,-10.19 0.05,-17.4 0.11,-274.77 0.05,1.47 0.11,8.67 0.22,49.85 0.6,169.14 0.16,159.36 0.16,10.63 0.16,-2.03 3.57,-53.95 1.08,-17.84 0.6,-13.14 0.22,-8.93 0.11,-11.43 0.05,-24.34 0.11,-265.23 0.05,2.34 0.16,19.14 0.32,83.47 0.49,124.41 0.16,160.75 0.16,9.53 0.22,-2.44 2.06,-26.72 3.19,-37.86 1.08,-16.94 0.38,-8.66 0.16,-6.9 0.11,-11.53 0.05,-26.28 0.11,-262.51 0.05,2.28 0.16,19.51 0.32,87.23 0.49,165.96 0.16,120.88 0.11,5.03 0.05,-0.12 0.38,-4.47 1.52,-17.59 0.97,-8.49 0.97,-6.52 1.68,-9.41 2.27,-11.78 0.97,-3.92 0.76,-2.23 0.65,-1.26 0.49,-0.55 0.49,-0.25 0.43,0.03 0.49,0.3 0.54,0.59 0.7,1.12 0.92,1.91 1.35,3.37 2.71,7.51 2.54,6.8 1.62,3.74 1.35,2.57 1.14,1.71 1.03,1.17 0.92,0.72 0.87,0.4 0.81,0.14 0.81,-0.08 0.87,-0.32 0.92,-0.58 1.03,-0.91 1.19,-1.36 1.41,-1.96 1.68,-2.72 2.22,-4.06 3.14,-6.24 5.09,-10.62 2.81,-6.29 1.52,-3.87 1.03,-3.17 0.87,-3.39 0.6,-3.24 0.43,-3.61 0.32,-4.43 0.22,-5.48 0.16,-10.71 0.05,-10.22 0.11,-285.28 0.16,7.61 0.16,30.22 0.7,229.58 0.16,126.69 0.11,5.23 0.05,-0.26 0.38,-5.72 2.16,-33.36 1.89,-28.31 0.76,-14.48 0.32,-9.51 0.16,-11.29 0.05,-11.1 0.11,-283.5 0.11,4.63 0.16,22.23 0.7,172.19 0.11,65.18 0.16,130.68 0.11,5.33 0.05,-0.08 0.7,-9.31 1.46,-18.7 3.52,-42.13 0.97,-15.82 0.32,-8.31 0.16,-8.83 0.05,-6.75 0.05,-20.77 0.11,-269.35 0.05,2.06 0.16,18.77 0.32,86.59 0.49,152.12 0.16,135.54 0.11,5.88 0.05,-0.03 0.27,-3.07 1.3,-15.62 0.92,-8.82 0.92,-6.88 1.24,-7.39 2.81,-15.08 1.08,-4.7 0.81,-2.6 0.65,-1.42 0.6,-0.78 0.49,-0.29 0.43,0.01 0.43,0.22 0.54,0.54 0.7,1.07 0.92,1.86 1.24,3.05 2.38,6.59 2.81,7.62 1.68,3.94 1.35,2.67 1.19,1.88 1.03,1.25 0.97,0.84 0.87,0.47 0.81,0.19 0.81,-0.02 0.81,-0.24 0.92,-0.52 1.03,-0.85 1.14,-1.24 1.35,-1.82 1.57,-2.48 2.11,-3.77 3.03,-5.94 5.09,-10.53 3.25,-7.16 1.62,-4.07 1.14,-3.45 0.81,-3.2 0.65,-3.55 0.43,-3.57 0.32,-4.44 0.22,-5.48 0.16,-10.39 0.05,-9.95 0.05,-66.11 0.05,-219.84 0.11,3.11 0.16,21.38 0.7,192.49 0.32,182.39 0.05,-0.21 0.43,-6.58 2.27,-34.83 1.73,-26.01 0.76,-14.48 0.32,-9.77 0.16,-11.7 0.05,-12.64 0.11,-281.19 0.05,1.65 0.16,16.46 0.27,65.39 0.6,189.17 0.16,122.68 0.11,4.79 0.05,-0.18 0.43,-5.59 1.89,-24.3 3.03,-35.69 1.14,-17.52 0.43,-9.83 0.16,-7.44 0.11,-14.59 0.11,-285.11 0.16,8.61 0.22,42.59 0.65,174.06 0.16,164.49 0.16,11.53 0.11,-0.82 2.27,-25.61 0.92,-7.14 1.14,-7.03 2.81,-15.51 1.19,-5.54 0.81,-2.84 0.65,-1.58 0.6,-0.9 0.49,-0.36 0.43,-0.06 0.43,0.16 0.54,0.48 0.65,0.9 0.87,1.64 1.19,2.81 1.84,5.02 4,11 1.73,4.01 1.35,2.58 1.14,1.74 1.03,1.19 0.92,0.75 0.81,0.4 0.92,0.19 0.81,-0.07 0.87,-0.32 0.92,-0.57 1.03,-0.91 1.19,-1.37 1.46,-2.05 1.73,-2.85 2.22,-4.09 3.35,-6.69 5.09,-10.66 2.76,-6.25 1.46,-3.86 0.97,-3.15 0.7,-2.95 0.6,-3.38 0.43,-3.78 0.32,-4.85 0.22,-6.69 0.11,-7.72 0.05,-9.35 0.05,-50.2 0.05,-236.93 0.11,2.93 0.16,20.78 0.65,176.2 0.11,53.96 0.16,139.31 0.11,6.2 0.05,-0.11 0.43,-6.6 2.98,-44.77 1.19,-18.8 0.7,-14.28 0.27,-9.41 0.11,-8.43 0.05,-10.42 0.11,-284.54 0.11,4.31 0.16,21.92 0.7,171.99 0.11,58.41 0.16,137.79 0.11,5.72 0.05,-0.08 0.38,-4.8 1.95,-25.01 3.03,-35.55 1.14,-17.42 0.43,-9.53 0.22,-10.56 0.11,-26.6 0.11,-270.48 0.05,2.05 0.16,18.53 0.32,86.41 0.49,149.52 0.16,138.42 0.11,6.08 0.05,-0.04 0.22,-2.35 2,-22.71 0.92,-7.39 1.14,-7.14 2.6,-14.35 1.3,-6.3 0.87,-3.25 0.7,-1.89 0.6,-1.03 0.54,-0.5 0.43,-0.11 0.49,0.14 0.49,0.39 0.65,0.86 0.81,1.49 1.14,2.63 1.79,4.8 4.22,11.54 1.68,3.88 1.35,2.59 1.14,1.74 1.08,1.25 0.92,0.74 0.87,0.41 0.81,0.16 0.81,-0.07 0.92,-0.34 0.92,-0.58 1.03,-0.92 1.19,-1.38 1.41,-1.97 1.79,-2.93 2.16,-3.99 0.16,-0.32"
       transform="matrix(0.11629445,0,0,0.06146412,-6.6749238,2.6268587)"
       inkscape:label="1" /><path
       id="path37-9-0-6"
       clip-path="url(#pbeede9d78b-6-8-3)"
       style="display:none;fill:none;fill-opacity:1;stroke:url(#linearGradient15-9-1);stroke-width:2.62581;stroke-linecap:butt;stroke-linejoin:bevel;stroke-dasharray:63.0194, 63.0194;stroke-dashoffset:1220.21;stroke-opacity:1"
       d="m 184.58,431.28 0.87,-3.04 0.7,-1.69 0.6,-0.87 0.49,-0.35 0.43,-0.06 0.43,0.16 0.54,0.47 0.65,0.9 0.87,1.65 1.14,2.69 1.89,5.14 3.95,10.83 1.62,3.77 1.35,2.61 1.14,1.75 1.03,1.2 0.92,0.76 0.87,0.43 0.81,0.17 0.81,-0.06 0.87,-0.29 0.92,-0.55 1.03,-0.89 1.19,-1.35 1.46,-2.03 1.52,-2.46 2.27,-4.13 3.41,-6.76 5.25,-10.93 2.44,-5.49 1.57,-4.01 1.08,-3.37 0.76,-3.04 0.6,-3.27 0.49,-4.06 0.32,-4.69 0.22,-6.35 0.11,-6.92 0.05,-7.43 0.05,-25.16 0.11,-264.77 0.05,1.71 0.11,9.67 0.22,51.81 0.6,174.34 0.16,152.87 0.16,8.44 0.27,-3.84 2.49,-38.21 1.62,-24.31 0.81,-15.26 0.32,-9.4 0.16,-10 0.05,-8.35 0.05,-36.54 0.05,-251.34 0.11,3.29 0.16,20.26 0.38,98.95 0.43,115.76 0.16,154.1 0.16,7.61 0.22,-2.49 2.92,-36.14 1.62,-18.66 1.19,-16.64 0.81,-13.95 0.27,-7.83 0.16,-11.76 0.05,-13.76 0.11,-279.01 0.05,1.63 0.16,16.94 0.27,69.02 0.54,151.7 0.16,153.99 0.16,8.06 0.27,-3.01 2.11,-23.56 0.92,-7.06 1.14,-6.94 2.65,-14.4 1.24,-5.75 0.87,-3 0.65,-1.57 0.6,-0.9 0.49,-0.37 0.43,-0.08 0.43,0.14 0.54,0.45 0.65,0.87 0.81,1.49 1.14,2.63 1.79,4.79 4.17,11.33 1.62,3.72 1.35,2.56 1.19,1.78 0.97,1.09 0.97,0.75 0.87,0.39 0.76,0.11 0.92,-0.11 0.87,-0.35 0.92,-0.62 1.08,-1 1.24,-1.48 1.46,-2.12 1.84,-3.09 2.49,-4.68 4,-8.09 4.87,-10.29 2.16,-5.08 1.3,-3.57 0.92,-3.13 0.7,-3.17 0.54,-3.47 0.43,-4.41 0.27,-5.1 0.16,-6.25 0.11,-10.19 0.05,-17.4 0.11,-274.77 0.05,1.47 0.11,8.67 0.22,49.85 0.6,169.14 0.16,159.36 0.16,10.63 0.16,-2.03 3.57,-53.95 1.08,-17.84 0.6,-13.14 0.22,-8.93 0.11,-11.43 0.05,-24.34 0.11,-265.23 0.05,2.34 0.16,19.14 0.32,83.47 0.49,124.41 0.16,160.75 0.16,9.53 0.22,-2.44 2.06,-26.72 3.19,-37.86 1.08,-16.94 0.38,-8.66 0.16,-6.9 0.11,-11.53 0.05,-26.28 0.11,-262.51 0.05,2.28 0.16,19.51 0.32,87.23 0.49,165.96 0.16,120.88 0.11,5.03 0.05,-0.12 0.38,-4.47 1.52,-17.59 0.97,-8.49 0.97,-6.52 1.68,-9.41 2.27,-11.78 0.97,-3.92 0.76,-2.23 0.65,-1.26 0.49,-0.55 0.49,-0.25 0.43,0.03 0.49,0.3 0.54,0.59 0.7,1.12 0.92,1.91 1.35,3.37 2.71,7.51 2.54,6.8 1.62,3.74 1.35,2.57 1.14,1.71 1.03,1.17 0.92,0.72 0.87,0.4 0.81,0.14 0.81,-0.08 0.87,-0.32 0.92,-0.58 1.03,-0.91 1.19,-1.36 1.41,-1.96 1.68,-2.72 2.22,-4.06 3.14,-6.24 5.09,-10.62 2.81,-6.29 1.52,-3.87 1.03,-3.17 0.87,-3.39 0.6,-3.24 0.43,-3.61 0.32,-4.43 0.22,-5.48 0.16,-10.71 0.05,-10.22 0.11,-285.28 0.16,7.61 0.16,30.22 0.7,229.58 0.16,126.69 0.11,5.23 0.05,-0.26 0.38,-5.72 2.16,-33.36 1.89,-28.31 0.76,-14.48 0.32,-9.51 0.16,-11.29 0.05,-11.1 0.11,-283.5 0.11,4.63 0.16,22.23 0.7,172.19 0.11,65.18 0.16,130.68 0.11,5.33 0.05,-0.08 0.7,-9.31 1.46,-18.7 3.52,-42.13 0.97,-15.82 0.32,-8.31 0.16,-8.83 0.05,-6.75 0.05,-20.77 0.11,-269.35 0.05,2.06 0.16,18.77 0.32,86.59 0.49,152.12 0.16,135.54 0.11,5.88 0.05,-0.03 0.27,-3.07 1.3,-15.62 0.92,-8.82 0.92,-6.88 1.24,-7.39 2.81,-15.08 1.08,-4.7 0.81,-2.6 0.65,-1.42 0.6,-0.78 0.49,-0.29 0.43,0.01 0.43,0.22 0.54,0.54 0.7,1.07 0.92,1.86 1.24,3.05 2.38,6.59 2.81,7.62 1.68,3.94 1.35,2.67 1.19,1.88 1.03,1.25 0.97,0.84 0.87,0.47 0.81,0.19 0.81,-0.02 0.81,-0.24 0.92,-0.52 1.03,-0.85 1.14,-1.24 1.35,-1.82 1.57,-2.48 2.11,-3.77 3.03,-5.94 5.09,-10.53 3.25,-7.16 1.62,-4.07 1.14,-3.45 0.81,-3.2 0.65,-3.55 0.43,-3.57 0.32,-4.44 0.22,-5.48 0.16,-10.39 0.05,-9.95 0.05,-66.11 0.05,-219.84 0.11,3.11 0.16,21.38 0.7,192.49 0.32,182.39 0.05,-0.21 0.43,-6.58 2.27,-34.83 1.73,-26.01 0.76,-14.48 0.32,-9.77 0.16,-11.7 0.05,-12.64 0.11,-281.19 0.05,1.65 0.16,16.46 0.27,65.39 0.6,189.17 0.16,122.68 0.11,4.79 0.05,-0.18 0.43,-5.59 1.89,-24.3 3.03,-35.69 1.14,-17.52 0.43,-9.83 0.16,-7.44 0.11,-14.59 0.11,-285.11 0.16,8.61 0.22,42.59 0.65,174.06 0.16,164.49 0.16,11.53 0.11,-0.82 2.27,-25.61 0.92,-7.14 1.14,-7.03 2.81,-15.51 1.19,-5.54 0.81,-2.84 0.65,-1.58 0.6,-0.9 0.49,-0.36 0.43,-0.06 0.43,0.16 0.54,0.48 0.65,0.9 0.87,1.64 1.19,2.81 1.84,5.02 4,11 1.73,4.01 1.35,2.58 1.14,1.74 1.03,1.19 0.92,0.75 0.81,0.4 0.92,0.19 0.81,-0.07 0.87,-0.32 0.92,-0.57 1.03,-0.91 1.19,-1.37 1.46,-2.05 1.73,-2.85 2.22,-4.09 3.35,-6.69 5.09,-10.66 2.76,-6.25 1.46,-3.86 0.97,-3.15 0.7,-2.95 0.6,-3.38 0.43,-3.78 0.32,-4.85 0.22,-6.69 0.11,-7.72 0.05,-9.35 0.05,-50.2 0.05,-236.93 0.11,2.93 0.16,20.78 0.65,176.2 0.11,53.96 0.16,139.31 0.11,6.2 0.05,-0.11 0.43,-6.6 2.98,-44.77 1.19,-18.8 0.7,-14.28 0.27,-9.41 0.11,-8.43 0.05,-10.42 0.11,-284.54 0.11,4.31 0.16,21.92 0.7,171.99 0.11,58.41 0.16,137.79 0.11,5.72 0.05,-0.08 0.38,-4.8 1.95,-25.01 3.03,-35.55 1.14,-17.42 0.43,-9.53 0.22,-10.56 0.11,-26.6 0.11,-270.48 0.05,2.05 0.16,18.53 0.32,86.41 0.49,149.52 0.16,138.42 0.11,6.08 0.05,-0.04 0.22,-2.35 2,-22.71 0.92,-7.39 1.14,-7.14 2.6,-14.35 1.3,-6.3 0.87,-3.25 0.7,-1.89 0.6,-1.03 0.54,-0.5 0.43,-0.11 0.49,0.14 0.49,0.39 0.65,0.86 0.81,1.49 1.14,2.63 1.79,4.8 4.22,11.54 1.68,3.88 1.35,2.59 1.14,1.74 1.08,1.25 0.92,0.74 0.87,0.41 0.81,0.16 0.81,-0.07 0.92,-0.34 0.92,-0.58 1.03,-0.92 1.19,-1.38 1.41,-1.97 1.79,-2.93 2.16,-3.99 0.16,-0.32"
       transform="matrix(0.11629445,0,0,0.06146412,-6.6749238,2.6268587)"
       inkscape:label="0" /></g></svg>
